<svg width="48" height="48" viewBox="0 0 48 48" fill="none" xmlns="http://www.w3.org/2000/svg">
<path d="M34.9999 9.99983C34.622 9.99469 34.317 9.79406 33.9999 9.99983C33.6829 10.2056 33.1493 10.6525 32.9999 10.9998C32.8505 11.3472 32.9313 11.628 32.9999 11.9998C33.0686 12.3717 33.7364 12.7288 33.9999 12.9998C34.2635 13.2708 34.6303 13.921 34.9999 13.9998C35.3695 14.0787 35.6488 14.1397 35.9999 13.9998C36.351 13.8599 36.7857 13.3113 36.9999 12.9998C37.2142 12.6884 36.9947 12.3779 36.9999 11.9998V11.9998C36.9954 11.5011 36.3524 11.3525 35.9999 10.9998C35.6475 10.6472 35.4984 10.0044 34.9999 9.99983Z" stroke="white" stroke-linecap="round" stroke-linejoin="round"/>
<path d="M41 4.99985H8C7.48033 5.01285 7.36289 5.62763 7 5.99985C6.63711 6.37207 5.99984 6.48 6 6.99985V39.9999C6 40.5282 6.6264 40.6262 7 40.9999C7.3736 41.3735 7.47165 41.9999 8 41.9999H41C41.5283 41.9999 41.6264 41.3735 42 40.9999C42.3736 40.6262 43 40.5282 43 39.9999V6.99985C42.9935 6.7382 43.1061 6.2391 43 5.99985C42.8939 5.76061 42.1896 6.18024 42 5.99985C41.8104 5.81947 42.2442 5.0939 42 4.99985C41.7558 4.90581 41.2616 4.99323 41 4.99985Z" stroke="white" stroke-linecap="round" stroke-linejoin="round"/>
<path d="M25 16C23.3272 16 21.3909 16.0706 20 17C18.6091 17.9294 17.6402 19.4545 17 21C16.3599 22.5455 15.6737 24.3593 16 26C16.3264 27.6407 16.8172 29.8172 18 31C19.1829 32.1828 21.3594 32.6737 23 33C24.6407 33.3263 26.4546 32.6402 28 32C29.5455 31.3598 31.0707 30.3909 32 29C32.9294 27.6091 33 25.6728 33 24C33 21.7569 32.5862 19.5861 31 18C29.4139 16.4139 27.2432 16 25 16Z" stroke="white" stroke-linecap="round" stroke-linejoin="round"/>
</svg>
