<svg width="48" height="48" viewBox="0 0 48 48" fill="none" xmlns="http://www.w3.org/2000/svg">
<path d="M24.0001 13C23.0324 13 21.8047 13.4624 21.0001 14C20.1955 14.5376 19.3704 15.106 19.0001 16C18.6298 16.894 18.8113 18.0509 19.0001 19C19.1889 19.9491 19.3158 21.3158 20.0001 22C20.6843 22.6842 22.051 22.8112 23.0001 23C23.9491 23.1888 25.1061 23.3703 26.0001 23C26.8941 22.6297 27.4625 21.8046 28.0001 21C28.5377 20.1954 29.0001 18.9677 29.0001 18C29.0001 16.7024 28.9176 14.9175 28.0001 14C27.0825 13.0825 25.2977 13 24.0001 13Z" stroke="white" stroke-linecap="round" stroke-linejoin="round"/>
<path d="M15 22C18.1444 26.2903 22.8566 25.9223 24 26C25.4293 26.0971 29.5697 25.9603 33 22" stroke="white" stroke-linecap="round"/>
<path d="M23 26L18 34" stroke="white" stroke-linecap="round"/>
<path d="M24 26L29 34" stroke="white" stroke-linecap="round"/>
<path d="M40 4.99985H7C6.48033 5.01285 6.36289 5.62763 6 5.99985C5.63711 6.37207 4.99984 6.48 5 6.99985V39.9999C5 40.5282 5.6264 40.6262 6 40.9999C6.3736 41.3735 6.47165 41.9999 7 41.9999H40C40.5283 41.9999 40.6264 41.3735 41 40.9999C41.3736 40.6262 42 40.5282 42 39.9999V6.99985C41.9935 6.7382 42.1061 6.2391 42 5.99985C41.8939 5.76061 41.1896 6.18024 41 5.99985C40.8104 5.81947 41.2442 5.0939 41 4.99985C40.7558 4.90581 40.2616 4.99323 40 4.99985Z" stroke="white" stroke-linecap="round" stroke-linejoin="round"/>
</svg>
