<svg width="48" height="48" viewBox="0 0 48 48" fill="none" xmlns="http://www.w3.org/2000/svg">
<path d="M12 12H18M15 15V9M23 39H27M25 41V37M9 30H11M10 32V29M13 39H16M14 40V37M41 26H44M43 27V25M28 9H30M29 11V8M41 9C42.1296 9 43.4558 10.154 43 12L37 38C36.6136 39.8559 35.5458 39.8634 34 39L21 29C20.9489 28.9632 21.0287 29.0561 21 29C20.9713 28.9439 21 29.063 21 29C21 28.937 20.9713 29.0561 21 29C21.0287 28.9439 20.9489 29.0368 21 29L36 15C36.6936 14.3847 35.9116 14.4442 35 15L16 27C15.942 27.0379 16.0687 26.9914 16 27C15.9313 27.0086 15.0655 27.0224 15 27L7 24C5.19662 23.474 5.79036 21.8833 8 21L40 9C40.2575 8.87626 40.7147 9.01381 41 9Z" stroke="white" stroke-linecap="round" stroke-linejoin="round"/>
</svg>
