<svg width="48" height="48" viewBox="0 0 48 48" fill="none" xmlns="http://www.w3.org/2000/svg">
<path d="M42.9998 14.0001C42.7701 13.1429 42.6245 12.6278 41.9998 12.0001C41.375 11.3724 40.8529 11.2308 39.9998 11.0001C37.6682 10.0951 14.5531 9.62638 7.99976 11.0001C7.14649 11.2309 6.6245 11.3722 5.99976 12.0001C5.37502 12.628 5.22922 13.1427 4.99976 14.0001C3.94684 18.6396 3.84104 29.2563 4.99976 34.0001C5.22937 34.8573 5.37503 35.3724 5.99976 36.0001C6.62449 36.6278 7.14661 36.7694 7.99976 37.0001C12.6175 38.0681 35.0979 38.2179 39.9998 37.0001C40.8529 36.7694 41.375 36.6278 41.9998 36.0001C42.6245 35.3724 42.7701 34.8573 42.9998 34.0001C44.1222 28.9455 44.228 18.9767 42.9998 14.0001Z" stroke="white" stroke-linecap="round" stroke-linejoin="round"/>
<path d="M30 24L20 18V30L30 24Z" stroke="white" stroke-linecap="round" stroke-linejoin="round"/>
</svg>
