<svg width="145" height="28" viewBox="0 0 145 28" fill="none" xmlns="http://www.w3.org/2000/svg">
<g filter="url(#filter0_i_128_3814)">
<path d="M0.685547 1.05176H5.94824V22.3848H21.0391V27H0.685547V1.05176ZM35.001 1.05176H40.5791L53.1299 27H47.6016L45.5264 22.6338H30.3691L28.3604 27H22.8154L35.001 1.05176ZM43.4512 18.3008L37.8398 6.51367L32.3779 18.3008H43.4512ZM58.376 19.2803C59.3167 19.8115 60.2686 20.293 61.2314 20.7246C62.2054 21.1452 63.2126 21.5049 64.2529 21.8037C65.2933 22.0915 66.3835 22.3128 67.5234 22.4678C68.6745 22.6227 69.8975 22.7002 71.1924 22.7002C72.7529 22.7002 74.0811 22.6006 75.1768 22.4014C76.2725 22.1911 77.1634 21.9089 77.8496 21.5547C78.5469 21.1895 79.0505 20.7578 79.3604 20.2598C79.6813 19.7617 79.8418 19.2194 79.8418 18.6328C79.8418 17.6921 79.4489 16.9505 78.6631 16.4082C77.8773 15.8548 76.6654 15.5781 75.0273 15.5781C74.3079 15.5781 73.5498 15.6279 72.7529 15.7275C71.9561 15.8161 71.1481 15.9157 70.3291 16.0264C69.5212 16.137 68.7188 16.2422 67.9219 16.3418C67.1361 16.4303 66.3945 16.4746 65.6973 16.4746C64.5352 16.4746 63.4173 16.3252 62.3438 16.0264C61.2812 15.7275 60.335 15.2793 59.5049 14.6816C58.6859 14.084 58.0329 13.3369 57.5459 12.4404C57.0589 11.5439 56.8154 10.498 56.8154 9.30273C56.8154 8.5944 56.9095 7.8916 57.0977 7.19434C57.2969 6.49707 57.6068 5.83301 58.0273 5.20215C58.459 4.56022 59.0124 3.9681 59.6875 3.42578C60.3626 2.8724 61.1761 2.39648 62.1279 1.99805C63.0908 1.59961 64.1976 1.28971 65.4482 1.06836C66.71 0.835938 68.1432 0.719727 69.748 0.719727C70.9102 0.719727 72.0778 0.786133 73.251 0.918945C74.4242 1.04069 75.5641 1.21777 76.6709 1.4502C77.7887 1.68262 78.8623 1.96484 79.8916 2.29688C80.9209 2.61784 81.8783 2.97754 82.7637 3.37598L80.4561 7.62598C79.7256 7.30501 78.9398 7.01172 78.0986 6.74609C77.2575 6.4694 76.3776 6.23145 75.459 6.03223C74.5404 5.83301 73.5885 5.67806 72.6035 5.56738C71.6296 5.44564 70.6335 5.38477 69.6152 5.38477C68.1654 5.38477 66.9701 5.48991 66.0293 5.7002C65.0996 5.91048 64.3581 6.18164 63.8047 6.51367C63.2513 6.83464 62.8639 7.19987 62.6426 7.60938C62.4323 8.00781 62.3271 8.40625 62.3271 8.80469C62.3271 9.57943 62.6758 10.2158 63.373 10.7139C64.0703 11.2008 65.1328 11.4443 66.5605 11.4443C67.1361 11.4443 67.7946 11.4056 68.5361 11.3281C69.2887 11.2396 70.0745 11.1455 70.8936 11.0459C71.7236 10.9463 72.5648 10.8577 73.417 10.7803C74.2803 10.6917 75.1159 10.6475 75.9238 10.6475C77.4512 10.6475 78.8014 10.819 79.9746 11.1621C81.1589 11.5052 82.1494 11.9977 82.9463 12.6396C83.7432 13.2705 84.3464 14.0397 84.7559 14.9473C85.1654 15.8438 85.3701 16.8509 85.3701 17.9688C85.3701 19.4629 85.0215 20.7965 84.3242 21.9697C83.638 23.1318 82.653 24.1169 81.3691 24.9248C80.0964 25.7217 78.5579 26.3304 76.7539 26.751C74.9499 27.1605 72.9411 27.3652 70.7275 27.3652C69.2666 27.3652 67.8389 27.2712 66.4443 27.083C65.0498 26.9059 63.7106 26.6514 62.4268 26.3193C61.154 25.9762 59.9365 25.5723 58.7744 25.1074C57.6234 24.6315 56.5553 24.1113 55.5703 23.5469L58.376 19.2803ZM91.1641 1.05176H113.261V5.66699H96.4268V10.8467H111.335V15.1797H96.4268V22.4014H113.609V27H91.1641V1.05176ZM119.453 1.05176H132.651C134.644 1.05176 136.37 1.26204 137.831 1.68262C139.292 2.09212 140.504 2.68978 141.467 3.47559C142.43 4.26139 143.144 5.21875 143.608 6.34766C144.084 7.47656 144.322 8.75488 144.322 10.1826C144.322 11.1455 144.206 12.0641 143.974 12.9385C143.741 13.8018 143.382 14.5986 142.895 15.3291C142.419 16.0596 141.815 16.7126 141.085 17.2881C140.354 17.8525 139.497 18.3229 138.512 18.6992L144.156 27H137.715L132.834 19.6289H132.685L124.716 19.6123V27H119.453V1.05176ZM132.784 15.0635C133.78 15.0635 134.649 14.9473 135.391 14.7148C136.143 14.4824 136.769 14.1559 137.267 13.7354C137.776 13.3148 138.152 12.8057 138.396 12.208C138.65 11.5993 138.777 10.9242 138.777 10.1826C138.777 8.73275 138.279 7.61491 137.283 6.8291C136.287 6.03223 134.787 5.63379 132.784 5.63379H124.716V15.0635H132.784Z" fill="white"/>
</g>
<defs>
<filter id="filter0_i_128_3814" x="0.685547" y="-0.280273" width="143.637" height="27.6455" filterUnits="userSpaceOnUse" color-interpolation-filters="sRGB">
<feFlood flood-opacity="0" result="BackgroundImageFix"/>
<feBlend mode="normal" in="SourceGraphic" in2="BackgroundImageFix" result="shape"/>
<feColorMatrix in="SourceAlpha" type="matrix" values="0 0 0 0 0 0 0 0 0 0 0 0 0 0 0 0 0 0 127 0" result="hardAlpha"/>
<feOffset dy="-1"/>
<feGaussianBlur stdDeviation="0.5"/>
<feComposite in2="hardAlpha" operator="arithmetic" k2="-1" k3="1"/>
<feColorMatrix type="matrix" values="0 0 0 0 0 0 0 0 0 0.396111 0 0 0 0 0.93 0 0 0 0.4 0"/>
<feBlend mode="normal" in2="shape" result="effect1_innerShadow_128_3814"/>
</filter>
</defs>
</svg>
