<svg width="40" height="40" viewBox="0 0 40 40" fill="none" xmlns="http://www.w3.org/2000/svg">
<g clip-path="url(#clip0_48_863)">
<path d="M16.2857 25.7143H2M16.2857 25.7143V34.2857C16.2857 35.0435 15.9847 35.7702 15.4489 36.3061C14.9131 36.8419 14.1863 37.1429 13.4286 37.1429H4.85714C4.09938 37.1429 3.37266 36.8419 2.83684 36.3061C2.30102 35.7702 2 35.0435 2 34.2857V25.7143M16.2857 25.7143H24.8571M2 25.7143V8.57146C2 7.05594 2.60204 5.60249 3.67368 4.53085C4.74531 3.45922 6.19876 2.85718 7.71429 2.85718H10.5714M39.1429 25.7143H24.8571M39.1429 25.7143V34.2857C39.1429 35.0435 38.8418 35.7702 38.306 36.3061C37.7702 36.8419 37.0435 37.1429 36.2857 37.1429H27.7143C26.9565 37.1429 26.2298 36.8419 25.694 36.3061C25.1582 35.7702 24.8571 35.0435 24.8571 34.2857V25.7143M39.1429 25.7143V8.57146C39.1429 7.05594 38.5408 5.60249 37.4692 4.53085C36.3975 3.45922 34.9441 2.85718 33.4286 2.85718H30.5714" stroke="url(#paint0_linear_48_863)" stroke-width="3" stroke-linecap="round" stroke-linejoin="round"/>
</g>
<defs>
<linearGradient id="paint0_linear_48_863" x1="42.0713" y1="20.0002" x2="1.57129" y2="20.0002" gradientUnits="userSpaceOnUse">
<stop stop-color="#73AAFA"/>
<stop offset="1" stop-color="#86EEFC"/>
</linearGradient>
<clipPath id="clip0_48_863">
<rect width="40" height="40" fill="white"/>
</clipPath>
</defs>
</svg>
