<svg width="1276" height="1095" viewBox="0 0 1276 1095" fill="none" xmlns="http://www.w3.org/2000/svg">
<g filter="url(#filter0_f_191_1543)">
<path fill-rule="evenodd" clip-rule="evenodd" d="M561.265 321.573C601.761 318.839 646.183 325.387 671.186 352.223C695.982 378.837 690.535 415.837 679.303 448.264C669.014 477.967 646.547 502.869 613.968 517.401C579.48 532.786 538.688 540.422 503.135 526.846C466.803 512.973 442.831 482.595 436.352 449.579C430.315 418.815 447.962 389.838 471.514 365.703C494.616 342.028 524.89 324.028 561.265 321.573Z" fill="url(#paint0_linear_191_1543)" fill-opacity="0.3"/>
</g>
<g filter="url(#filter1_f_191_1543)">
<path fill-rule="evenodd" clip-rule="evenodd" d="M819.746 686.067C846.546 684.26 875.945 688.588 892.492 706.323C908.902 723.911 905.297 748.363 897.863 769.793C891.054 789.423 876.185 805.88 854.625 815.484C831.8 825.651 804.804 830.698 781.275 821.726C757.231 812.558 741.366 792.482 737.078 770.663C733.083 750.331 744.762 731.181 760.348 715.231C775.637 699.585 795.673 687.69 819.746 686.067Z" fill="url(#paint1_linear_191_1543)" fill-opacity="0.3"/>
</g>
<g filter="url(#filter2_f_191_1543)">
<path fill-rule="evenodd" clip-rule="evenodd" d="M510.331 451.331C547.203 449.267 578.283 472.511 612.98 485.16C665.099 504.16 733.99 497.472 764.323 543.924C794.789 590.578 779.15 655.416 757.757 706.867C737.378 755.877 695.653 791.647 650.039 818.78C607.723 843.95 558.889 862.17 510.331 854.04C465.251 846.493 432.729 809.9 400.921 777.073C374.193 749.489 355.441 717.17 342.625 680.961C329.469 643.794 311.961 603.375 326.462 566.712C340.756 530.571 382.784 516.856 415.702 496.2C446.014 477.179 474.603 453.33 510.331 451.331Z" fill="url(#paint2_linear_191_1543)" fill-opacity="0.3"/>
</g>
<g filter="url(#filter3_f_191_1543)">
<path fill-rule="evenodd" clip-rule="evenodd" d="M789.928 414.839C860.981 416.203 925.042 459.067 947.053 526.639C969.113 594.362 944.115 668.741 886.088 710.044C829.724 750.163 755.271 743.071 698.467 703.577C637.267 661.027 590.563 591.286 613.072 520.227C635.983 447.899 714.072 413.383 789.928 414.839Z" fill="url(#paint3_linear_191_1543)" fill-opacity="0.3"/>
</g>
<path fill-rule="evenodd" clip-rule="evenodd" d="M796.373 280.053C847.43 281.319 897.334 303.896 933.177 340.297C966.022 373.654 964.013 425.099 981.83 468.399C1001.82 516.986 1053.52 557.488 1043.79 609.122C1033.99 661.159 977.503 688.032 934.595 719.033C891.822 749.935 849.098 786.001 796.373 787.879C742.777 789.788 686.71 769.007 650.812 729.141C617.433 692.074 629.217 635.443 615.829 587.382C603.273 542.306 567.868 502.955 574.92 456.697C582.48 407.106 615.346 364.657 654.551 333.385C695.031 301.096 744.619 278.769 796.373 280.053Z" stroke="#299BF4"/>
<path fill-rule="evenodd" clip-rule="evenodd" d="M677.627 576.355C690.239 595.99 696.185 618.414 700.806 642.105C706.155 669.534 719.711 697.357 706.719 725.531C693.575 754.034 661.03 770.02 633.702 787.623C606.448 805.179 578.581 825.523 548.294 827.58C518.001 829.637 493.242 814.014 470.341 798.717C448.239 783.955 429.409 765.583 418.913 741.162C408.107 716.023 402.239 687.473 409.972 658.266C417.669 629.192 436.546 601.311 461.358 580.836C484.512 561.729 514.239 559.167 541.843 549.444C569.796 539.598 597.968 518.094 624.538 523.36C651.177 528.639 663.821 554.86 677.627 576.355Z" stroke="#0DB6FC"/>
<path fill-rule="evenodd" clip-rule="evenodd" d="M529.281 298.464C553.537 306.49 579.344 305.023 602.176 316.496C627.076 329.008 648.292 346.163 666.398 367.363C689.99 394.987 724.068 421.609 722.974 457.938C721.885 494.111 687.281 519.467 661.066 544.384C636.945 567.312 609.424 585.211 577.901 595.835C545.393 606.792 511.26 612.908 477.618 606.212C442.019 599.127 408.899 582.405 382.923 557.026C355.512 530.247 335.544 496.56 327.099 459.16C318.216 419.819 317.825 377.711 334.103 340.816C350.478 303.702 377.463 263.84 417.069 255.245C457.046 246.57 490.442 285.612 529.281 298.464Z" stroke="#00A8A8"/>
<defs>
<filter id="filter0_f_191_1543" x="114.158" y="0" width="895.616" height="854.889" filterUnits="userSpaceOnUse" color-interpolation-filters="sRGB">
<feFlood flood-opacity="0" result="BackgroundImageFix"/>
<feBlend mode="normal" in="SourceGraphic" in2="BackgroundImageFix" result="shape"/>
<feGaussianBlur stdDeviation="160.5" result="effect1_foregroundBlur_191_1543"/>
</filter>
<filter id="filter1_f_191_1543" x="415.288" y="364.688" width="809.843" height="782.692" filterUnits="userSpaceOnUse" color-interpolation-filters="sRGB">
<feFlood flood-opacity="0" result="BackgroundImageFix"/>
<feBlend mode="normal" in="SourceGraphic" in2="BackgroundImageFix" result="shape"/>
<feGaussianBlur stdDeviation="160.5" result="effect1_foregroundBlur_191_1543"/>
</filter>
<filter id="filter2_f_191_1543" x="0" y="130.202" width="1102.33" height="1046.8" filterUnits="userSpaceOnUse" color-interpolation-filters="sRGB">
<feFlood flood-opacity="0" result="BackgroundImageFix"/>
<feBlend mode="normal" in="SourceGraphic" in2="BackgroundImageFix" result="shape"/>
<feGaussianBlur stdDeviation="160.5" result="effect1_foregroundBlur_191_1543"/>
</filter>
<filter id="filter3_f_191_1543" x="286.32" y="93.7946" width="989.68" height="964.086" filterUnits="userSpaceOnUse" color-interpolation-filters="sRGB">
<feFlood flood-opacity="0" result="BackgroundImageFix"/>
<feBlend mode="normal" in="SourceGraphic" in2="BackgroundImageFix" result="shape"/>
<feGaussianBlur stdDeviation="160.5" result="effect1_foregroundBlur_191_1543"/>
</filter>
<linearGradient id="paint0_linear_191_1543" x1="435.158" y1="427.445" x2="688.774" y2="427.445" gradientUnits="userSpaceOnUse">
<stop stop-color="#76A4F4"/>
<stop offset="1" stop-color="#96DDF6"/>
</linearGradient>
<linearGradient id="paint1_linear_191_1543" x1="736.288" y1="756.034" x2="904.131" y2="756.034" gradientUnits="userSpaceOnUse">
<stop stop-color="#4481EB"/>
<stop offset="1" stop-color="#04BEFE"/>
</linearGradient>
<linearGradient id="paint2_linear_191_1543" x1="321" y1="653.601" x2="781.334" y2="653.601" gradientUnits="userSpaceOnUse">
<stop stop-color="#A1C4FD"/>
<stop offset="1" stop-color="#C2E9FB"/>
</linearGradient>
<linearGradient id="paint3_linear_191_1543" x1="607.32" y1="575.838" x2="955" y2="575.838" gradientUnits="userSpaceOnUse">
<stop stop-color="#C2ADE5"/>
<stop offset="0.99" stop-color="#E3EEFF"/>
<stop offset="1" stop-color="#6EA4F8"/>
</linearGradient>
</defs>
</svg>
