<svg viewBox="0 0 29 15" xmlns="http://www.w3.org/2000/svg">
<path d="M26 0.499999L14 11.5L3.00002 0.499999C2.79282 0.302797 2.28967 0.499999 2.00002 0.499999C1.71038 0.499999 1.20723 0.302797 1.00002 0.499999C0.899697 0.59578 1.05444 1.37383 1.00002 1.5C0.945611 1.62617 1.00002 1.36314 1.00002 1.5C0.945611 1.37383 1.00002 1.63686 1.00002 1.5C1.05444 1.62617 0.899697 2.40422 1.00002 2.5L14 14.5C13.6975 14.5 14.2167 14.7058 14 14.5C14.3026 14.5 14.7834 14.7058 15 14.5L28 2.5C28.1011 2.40415 27.9452 1.62659 28 1.5C28 1.6374 28.0549 1.37341 28 1.5C28 1.36259 28.0549 1.62659 28 1.5C27.9452 1.37341 28.1011 0.595852 28 0.499999C27.7928 0.302797 27.2897 0.499999 27 0.499999C26.7104 0.499999 26.2072 0.302797 26 0.499999Z" fill="current"/>
</svg>
